<?xml version="1.0" ?><svg viewBox="0 0 80 80" xmlns="http://www.w3.org/2000/svg"><title/><g data-name="레이어 2" id="레이어_2"><g data-name="레이어 1" id="레이어_1-2"><circle cx="28.64" cy="28.21" r="4.43"/><rect height="21.74" rx="1.1" ry="1.1" width="6.86" x="25.21" y="34.48"/><path d="M48.48,34.15c-3.62,0-5.32,1.32-6.46,3V35.49a1,1,0,0,0-1-1H36.16a1,1,0,0,0-1,1V55.22a1,1,0,0,0,1,1H41a1,1,0,0,0,1-1V44.64c.13-1.42.75-4.59,3.84-4.59,4,0,3.58,4.63,3.58,6v9.17a1,1,0,0,0,1,1h5a1,1,0,0,0,1-1V45.75C56.44,41.64,56.49,34.15,48.48,34.15Z"/><path d="M0,0V80H80V0ZM60.81,57A3.77,3.77,0,0,1,57,60.81H23A3.77,3.77,0,0,1,19.19,57V23A3.77,3.77,0,0,1,23,19.19H57A3.77,3.77,0,0,1,60.81,23Z"/></g></g></svg>